<?xml version="1.0" encoding="UTF-8"?>
<svg id="Artwork" xmlns="http://www.w3.org/2000/svg" viewBox="0 0 2836 1718">
  <defs>
    <style>
      .cls-1 {
        fill: #f01840;
        fill-rule: evenodd;
      }

      .cls-1, .cls-2 {
        stroke-width: 0px;
      }

      .cls-2 {
        fill: #fffff8;
      }
    </style>
  </defs>
  <path class="cls-1" d="M817.98,645.42c-125.21,0-246.75,101.37-246.75,265.3,0,203.63,153.84,295.73,174.06,306.78h0c-140.53-49.29-245.03-185.4-245.03-330.02,0-191.76,152.61-332.8,317.71-332.8s271.07,122.29,271.07,250.58c0,111.68-86.73,207.75-159,213.59,0,0,104.08-47.3,104.08-174.74,0-106.43-96.63-198.69-216.15-198.69ZM683.41,873.89c0-127.43,104.08-174.74,104.08-174.74-72.27,5.84-159,101.92-159,213.59,0,128.29,105.06,250.58,271.07,250.58s317.71-141.05,317.71-332.8c0-144.63-104.49-280.74-245.03-330.02h0c20.22,11.05,174.06,103.16,174.06,306.78,0,163.93-121.53,265.3-246.75,265.3s-216.15-92.26-216.15-198.69Z"/>
  <path class="cls-2" d="M2134.89,1004.16h-231.32v-98.45h196.55v-101.87h-196.55v-90.14h226.86v-104.36h-347.85v500h352.3v-105.19ZM2212.26,1109.35h123.48v-500h-123.48v500ZM1585.06,811.93l-77.45-23.32c-25.1-8.63-45.88-18.02-45.88-45.62,0-33.48,39.02-41.74,72.5-41.74,53.86,0,101.59,14.7,149.43,46.13v-110.19c-46.52-24.98-94.55-36.14-155.25-36.14-101.16,0-187.66,51.2-187.66,151.92,0,77.14,37.46,119.78,129.29,147.15l77.43,22.48.16.06c28.16,10.24,46.63,19.12,46.63,48.08,0,39.05-45.28,45.9-84.13,45.9-50.78,0-110.67-18.55-158.57-48.8v110.49c42.49,24.67,102.73,39.34,161.9,39.34,109.24,0,203.45-46.02,203.45-154.41,0-67.88-30.23-119.85-131.84-151.32Z"/>
</svg>